solid
 facet normal -2.436523e-016  1.000000e+000  0.000000e+000
   outer loop
     vertex  1.920000e+002  4.678124e-014 -5.000000e+001
     vertex  0.000000e+000  0.000000e+000 -5.000000e+001
     vertex  0.000000e+000  0.000000e+000  0.000000e+000
   endloop
 endfacet
 facet normal -2.436523e-016  1.000000e+000  1.682903e-031
   outer loop
     vertex  1.920000e+002  4.678124e-014 -5.000000e+001
     vertex  0.000000e+000  0.000000e+000  0.000000e+000
     vertex  1.920000e+002  4.678124e-014  0.000000e+000
   endloop
 endfacet
 facet normal  0.000000e+000  0.000000e+000  1.000000e+000
   outer loop
     vertex  0.000000e+000  1.200000e+003 -5.000000e+001
     vertex  3.647296e+002  4.972051e+002 -5.000000e+001
     vertex  5.000000e+002  1.200000e+003 -5.000000e+001
   endloop
 endfacet
 facet normal  0.000000e+000  0.000000e+000  1.000000e+000
   outer loop
     vertex  3.050000e+002  3.799038e+002 -5.000000e+001
     vertex  2.300000e+002  2.500000e+002 -5.000000e+001
     vertex  3.300000e+002  3.002436e+002 -5.000000e+001
   endloop
 endfacet
 facet normal  0.000000e+000  0.000000e+000  1.000000e+000
   outer loop
     vertex  2.000000e+002  2.500000e+002 -5.000000e+001
     vertex  2.000000e+002 -8.000000e+000 -5.000000e+001
     vertex  2.600000e+002 -8.000000e+000 -5.000000e+001
   endloop
 endfacet
 facet normal  0.000000e+000  0.000000e+000  1.000000e+000
   outer loop
     vertex  2.000000e+002  2.500000e+002 -5.000000e+001
     vertex  2.600000e+002 -8.000000e+000 -5.000000e+001
     vertex  2.600000e+002  1.790000e+002 -5.000000e+001
   endloop
 endfacet
 facet normal  0.000000e+000  0.000000e+000  1.000000e+000
   outer loop
     vertex  2.600000e+002  1.790000e+002 -5.000000e+001
     vertex  3.300000e+002  3.002436e+002 -5.000000e+001
     vertex  2.300000e+002  2.500000e+002 -5.000000e+001
   endloop
 endfacet
 facet normal  0.000000e+000  0.000000e+000  1.000000e+000
   outer loop
     vertex  3.300000e+002  3.002436e+002 -5.000000e+001
     vertex  3.647296e+002  4.972051e+002 -5.000000e+001
     vertex  3.050000e+002  3.799038e+002 -5.000000e+001
   endloop
 endfacet
 facet normal  0.000000e+000  0.000000e+000  1.000000e+000
   outer loop
     vertex  0.000000e+000  1.200000e+003 -5.000000e+001
     vertex  0.000000e+000  2.273737e-013 -5.000000e+001
     vertex  1.920000e+002  4.678124e-014 -5.000000e+001
   endloop
 endfacet
 facet normal  0.000000e+000  0.000000e+000  1.000000e+000
   outer loop
     vertex  0.000000e+000  1.200000e+003 -5.000000e+001
     vertex  1.920000e+002  4.678124e-014 -5.000000e+001
     vertex  1.920000e+002  2.580000e+002 -5.000000e+001
   endloop
 endfacet
 facet normal  0.000000e+000  0.000000e+000  1.000000e+000
   outer loop
     vertex  2.680000e+002  1.768564e+002 -5.000000e+001
     vertex  2.680000e+002  0.000000e+000 -5.000000e+001
     vertex  5.000000e+002  0.000000e+000 -5.000000e+001
   endloop
 endfacet
 facet normal  0.000000e+000  0.000000e+000  1.000000e+000
   outer loop
     vertex  3.376335e+002  2.974652e+002 -5.000000e+001
     vertex  2.680000e+002  1.768564e+002 -5.000000e+001
     vertex  5.000000e+002  0.000000e+000 -5.000000e+001
   endloop
 endfacet
 facet normal  0.000000e+000  0.000000e+000  1.000000e+000
   outer loop
     vertex  2.000000e+002  2.500000e+002 -5.000000e+001
     vertex  2.600000e+002  1.790000e+002 -5.000000e+001
     vertex  2.300000e+002  2.500000e+002 -5.000000e+001
   endloop
 endfacet
 facet normal  0.000000e+000  0.000000e+000  1.000000e+000
   outer loop
     vertex  2.980718e+002  3.839038e+002 -5.000000e+001
     vertex  1.920000e+002  2.580000e+002 -5.000000e+001
     vertex  2.253812e+002  2.580000e+002 -5.000000e+001
   endloop
 endfacet
 facet normal  0.000000e+000  0.000000e+000  1.000000e+000
   outer loop
     vertex  3.731730e+002  4.990198e+002 -5.000000e+001
     vertex  3.376335e+002  2.974652e+002 -5.000000e+001
     vertex  5.000000e+002  0.000000e+000 -5.000000e+001
   endloop
 endfacet
 facet normal  0.000000e+000  0.000000e+000  1.000000e+000
   outer loop
     vertex  3.647296e+002  4.972051e+002 -5.000000e+001
     vertex  2.980718e+002  3.839038e+002 -5.000000e+001
     vertex  3.050000e+002  3.799038e+002 -5.000000e+001
   endloop
 endfacet
 facet normal  0.000000e+000  0.000000e+000  1.000000e+000
   outer loop
     vertex  5.000000e+002  1.200000e+003 -5.000000e+001
     vertex  3.647296e+002  4.972051e+002 -5.000000e+001
     vertex  3.731730e+002  4.990198e+002 -5.000000e+001
   endloop
 endfacet
 facet normal  0.000000e+000  0.000000e+000  1.000000e+000
   outer loop
     vertex  5.000000e+002  1.200000e+003 -5.000000e+001
     vertex  3.731730e+002  4.990198e+002 -5.000000e+001
     vertex  5.000000e+002  0.000000e+000 -5.000000e+001
   endloop
 endfacet
 facet normal  0.000000e+000  0.000000e+000  1.000000e+000
   outer loop
     vertex  0.000000e+000  1.200000e+003 -5.000000e+001
     vertex  1.920000e+002  2.580000e+002 -5.000000e+001
     vertex  2.980718e+002  3.839038e+002 -5.000000e+001
   endloop
 endfacet
 facet normal  0.000000e+000  0.000000e+000  1.000000e+000
   outer loop
     vertex  0.000000e+000  1.200000e+003 -5.000000e+001
     vertex  2.980718e+002  3.839038e+002 -5.000000e+001
     vertex  3.647296e+002  4.972051e+002 -5.000000e+001
   endloop
 endfacet
 facet normal  1.000000e+000  0.000000e+000  0.000000e+000
   outer loop
     vertex  0.000000e+000  0.000000e+000  0.000000e+000
     vertex  0.000000e+000  1.200000e+003 -5.000000e+001
     vertex  0.000000e+000  1.200000e+003  0.000000e+000
   endloop
 endfacet
 facet normal  1.000000e+000  0.000000e+000  0.000000e+000
   outer loop
     vertex  0.000000e+000  2.273737e-013 -5.000000e+001
     vertex  0.000000e+000  1.200000e+003 -5.000000e+001
     vertex  0.000000e+000  0.000000e+000  0.000000e+000
   endloop
 endfacet
 facet normal  0.000000e+000  0.000000e+000 -1.000000e+000
   outer loop
     vertex  3.647296e+002  4.972051e+002  0.000000e+000
     vertex  0.000000e+000  1.200000e+003  0.000000e+000
     vertex  5.000000e+002  1.200000e+003  0.000000e+000
   endloop
 endfacet
 facet normal  0.000000e+000  0.000000e+000 -1.000000e+000
   outer loop
     vertex  0.000000e+000  0.000000e+000  0.000000e+000
     vertex  0.000000e+000  1.200000e+003  0.000000e+000
     vertex  1.920000e+002  2.580000e+002  0.000000e+000
   endloop
 endfacet
 facet normal  0.000000e+000  0.000000e+000 -1.000000e+000
   outer loop
     vertex  3.647296e+002  4.972051e+002  0.000000e+000
     vertex  5.000000e+002  1.200000e+003  0.000000e+000
     vertex  3.731730e+002  4.990198e+002  0.000000e+000
   endloop
 endfacet
 facet normal  0.000000e+000  0.000000e+000 -1.000000e+000
   outer loop
     vertex  3.300000e+002  3.002436e+002  0.000000e+000
     vertex  2.600000e+002  1.790000e+002  0.000000e+000
     vertex  2.300000e+002  2.500000e+002  0.000000e+000
   endloop
 endfacet
 facet normal  0.000000e+000  0.000000e+000 -1.000000e+000
   outer loop
     vertex  2.000000e+002 -8.000000e+000  0.000000e+000
     vertex  2.000000e+002  2.500000e+002  0.000000e+000
     vertex  2.600000e+002  1.790000e+002  0.000000e+000
   endloop
 endfacet
 facet normal  0.000000e+000  0.000000e+000 -1.000000e+000
   outer loop
     vertex  2.000000e+002 -8.000000e+000  0.000000e+000
     vertex  2.600000e+002  1.790000e+002  0.000000e+000
     vertex  2.600000e+002 -8.000000e+000  0.000000e+000
   endloop
 endfacet
 facet normal  0.000000e+000  0.000000e+000 -1.000000e+000
   outer loop
     vertex  2.300000e+002  2.500000e+002  0.000000e+000
     vertex  3.050000e+002  3.799038e+002  0.000000e+000
     vertex  3.300000e+002  3.002436e+002  0.000000e+000
   endloop
 endfacet
 facet normal  0.000000e+000  0.000000e+000 -1.000000e+000
   outer loop
     vertex  3.300000e+002  3.002436e+002  0.000000e+000
     vertex  3.050000e+002  3.799038e+002  0.000000e+000
     vertex  3.647296e+002  4.972051e+002  0.000000e+000
   endloop
 endfacet
 facet normal  0.000000e+000  0.000000e+000 -1.000000e+000
   outer loop
     vertex  1.920000e+002  2.580000e+002  0.000000e+000
     vertex  1.920000e+002  4.678124e-014  0.000000e+000
     vertex  0.000000e+000  0.000000e+000  0.000000e+000
   endloop
 endfacet
 facet normal  0.000000e+000  0.000000e+000 -1.000000e+000
   outer loop
     vertex  2.980718e+002  3.839038e+002  0.000000e+000
     vertex  0.000000e+000  1.200000e+003  0.000000e+000
     vertex  3.647296e+002  4.972051e+002  0.000000e+000
   endloop
 endfacet
 facet normal  0.000000e+000  0.000000e+000 -1.000000e+000
   outer loop
     vertex  2.980718e+002  3.839038e+002  0.000000e+000
     vertex  3.647296e+002  4.972051e+002  0.000000e+000
     vertex  3.050000e+002  3.799038e+002  0.000000e+000
   endloop
 endfacet
 facet normal  0.000000e+000  0.000000e+000 -1.000000e+000
   outer loop
     vertex  5.000000e+002  2.273737e-013  0.000000e+000
     vertex  3.376335e+002  2.974652e+002  0.000000e+000
     vertex  3.731730e+002  4.990198e+002  0.000000e+000
   endloop
 endfacet
 facet normal  0.000000e+000  0.000000e+000 -1.000000e+000
   outer loop
     vertex  5.000000e+002  2.273737e-013  0.000000e+000
     vertex  3.731730e+002  4.990198e+002  0.000000e+000
     vertex  5.000000e+002  1.200000e+003  0.000000e+000
   endloop
 endfacet
 facet normal  0.000000e+000  0.000000e+000 -1.000000e+000
   outer loop
     vertex  1.920000e+002  2.580000e+002  0.000000e+000
     vertex  2.980718e+002  3.839038e+002  0.000000e+000
     vertex  2.253812e+002  2.580000e+002  0.000000e+000
   endloop
 endfacet
 facet normal  0.000000e+000  0.000000e+000 -1.000000e+000
   outer loop
     vertex  1.920000e+002  2.580000e+002  0.000000e+000
     vertex  0.000000e+000  1.200000e+003  0.000000e+000
     vertex  2.980718e+002  3.839038e+002  0.000000e+000
   endloop
 endfacet
 facet normal  0.000000e+000  0.000000e+000 -1.000000e+000
   outer loop
     vertex  2.680000e+002  1.768564e+002  0.000000e+000
     vertex  3.376335e+002  2.974652e+002  0.000000e+000
     vertex  5.000000e+002  2.273737e-013  0.000000e+000
   endloop
 endfacet
 facet normal  0.000000e+000  0.000000e+000 -1.000000e+000
   outer loop
     vertex  2.600000e+002  1.790000e+002  0.000000e+000
     vertex  2.000000e+002  2.500000e+002  0.000000e+000
     vertex  2.300000e+002  2.500000e+002  0.000000e+000
   endloop
 endfacet
 facet normal  0.000000e+000  0.000000e+000 -1.000000e+000
   outer loop
     vertex  2.680000e+002  0.000000e+000  0.000000e+000
     vertex  2.680000e+002  1.768564e+002  0.000000e+000
     vertex  5.000000e+002  2.273737e-013  0.000000e+000
   endloop
 endfacet
 facet normal -1.000000e+000  0.000000e+000  0.000000e+000
   outer loop
     vertex  1.920000e+002  2.580000e+002  0.000000e+000
     vertex  1.920000e+002  4.678124e-014 -5.000000e+001
     vertex  1.920000e+002  4.678124e-014  0.000000e+000
   endloop
 endfacet
 facet normal -1.000000e+000  0.000000e+000  0.000000e+000
   outer loop
     vertex  1.920000e+002  2.580000e+002 -5.000000e+001
     vertex  1.920000e+002  4.678124e-014 -5.000000e+001
     vertex  1.920000e+002  2.580000e+002  0.000000e+000
   endloop
 endfacet
 facet normal  0.000000e+000  1.000000e+000  0.000000e+000
   outer loop
     vertex  2.253812e+002  2.580000e+002 -5.000000e+001
     vertex  1.920000e+002  2.580000e+002 -5.000000e+001
     vertex  1.920000e+002  2.580000e+002  0.000000e+000
   endloop
 endfacet
 facet normal  0.000000e+000  1.000000e+000  0.000000e+000
   outer loop
     vertex  2.253812e+002  2.580000e+002 -5.000000e+001
     vertex  1.920000e+002  2.580000e+002  0.000000e+000
     vertex  2.253812e+002  2.580000e+002  0.000000e+000
   endloop
 endfacet
 facet normal -8.660254e-001  5.000000e-001  0.000000e+000
   outer loop
     vertex  2.980718e+002  3.839038e+002  0.000000e+000
     vertex  2.253812e+002  2.580000e+002 -5.000000e+001
     vertex  2.253812e+002  2.580000e+002  0.000000e+000
   endloop
 endfacet
 facet normal -8.660254e-001  5.000000e-001  0.000000e+000
   outer loop
     vertex  2.980718e+002  3.839038e+002 -5.000000e+001
     vertex  2.253812e+002  2.580000e+002 -5.000000e+001
     vertex  2.980718e+002  3.839038e+002  0.000000e+000
   endloop
 endfacet
 facet normal  5.000000e-001  8.660254e-001  0.000000e+000
   outer loop
     vertex  3.050000e+002  3.799038e+002 -5.000000e+001
     vertex  2.980718e+002  3.839038e+002 -5.000000e+001
     vertex  2.980718e+002  3.839038e+002  0.000000e+000
   endloop
 endfacet
 facet normal  5.000000e-001  8.660254e-001  0.000000e+000
   outer loop
     vertex  3.050000e+002  3.799038e+002 -5.000000e+001
     vertex  2.980718e+002  3.839038e+002  0.000000e+000
     vertex  3.050000e+002  3.799038e+002  0.000000e+000
   endloop
 endfacet
 facet normal  8.660254e-001 -5.000000e-001  0.000000e+000
   outer loop
     vertex  2.300000e+002  2.500000e+002 -5.000000e+001
     vertex  3.050000e+002  3.799038e+002 -5.000000e+001
     vertex  3.050000e+002  3.799038e+002  0.000000e+000
   endloop
 endfacet
 facet normal  8.660254e-001 -5.000000e-001  0.000000e+000
   outer loop
     vertex  2.300000e+002  2.500000e+002 -5.000000e+001
     vertex  3.050000e+002  3.799038e+002  0.000000e+000
     vertex  2.300000e+002  2.500000e+002  0.000000e+000
   endloop
 endfacet
 facet normal  0.000000e+000 -1.000000e+000  0.000000e+000
   outer loop
     vertex  2.000000e+002  2.500000e+002 -5.000000e+001
     vertex  2.300000e+002  2.500000e+002 -5.000000e+001
     vertex  2.300000e+002  2.500000e+002  0.000000e+000
   endloop
 endfacet
 facet normal  0.000000e+000 -1.000000e+000  0.000000e+000
   outer loop
     vertex  2.000000e+002  2.500000e+002 -5.000000e+001
     vertex  2.300000e+002  2.500000e+002  0.000000e+000
     vertex  2.000000e+002  2.500000e+002  0.000000e+000
   endloop
 endfacet
 facet normal  1.000000e+000  0.000000e+000  0.000000e+000
   outer loop
     vertex  2.000000e+002 -8.000000e+000 -5.000000e+001
     vertex  2.000000e+002  2.500000e+002 -5.000000e+001
     vertex  2.000000e+002  2.500000e+002  0.000000e+000
   endloop
 endfacet
 facet normal  1.000000e+000  0.000000e+000  0.000000e+000
   outer loop
     vertex  2.000000e+002 -8.000000e+000 -5.000000e+001
     vertex  2.000000e+002  2.500000e+002  0.000000e+000
     vertex  2.000000e+002 -8.000000e+000  0.000000e+000
   endloop
 endfacet
 facet normal  0.000000e+000 -1.000000e+000  0.000000e+000
   outer loop
     vertex  2.600000e+002 -8.000000e+000 -5.000000e+001
     vertex  5.080000e+002 -8.000000e+000 -5.800000e+001
     vertex  5.080000e+002 -8.000000e+000  8.000000e+000
   endloop
 endfacet
 facet normal  0.000000e+000 -1.000000e+000  0.000000e+000
   outer loop
     vertex  2.600000e+002 -8.000000e+000 -5.000000e+001
     vertex  5.080000e+002 -8.000000e+000  8.000000e+000
     vertex  2.600000e+002 -8.000000e+000  0.000000e+000
   endloop
 endfacet
 facet normal  0.000000e+000 -1.000000e+000  0.000000e+000
   outer loop
     vertex -8.000000e+000 -8.000000e+000  8.000000e+000
     vertex  2.000000e+002 -8.000000e+000  0.000000e+000
     vertex  2.600000e+002 -8.000000e+000  0.000000e+000
   endloop
 endfacet
 facet normal  0.000000e+000 -1.000000e+000  0.000000e+000
   outer loop
     vertex -8.000000e+000 -8.000000e+000  8.000000e+000
     vertex  2.600000e+002 -8.000000e+000  0.000000e+000
     vertex  5.080000e+002 -8.000000e+000  8.000000e+000
   endloop
 endfacet
 facet normal  0.000000e+000 -1.000000e+000  0.000000e+000
   outer loop
     vertex -8.000000e+000 -8.000000e+000 -5.800000e+001
     vertex  2.000000e+002 -8.000000e+000 -5.000000e+001
     vertex  2.000000e+002 -8.000000e+000  0.000000e+000
   endloop
 endfacet
 facet normal  0.000000e+000 -1.000000e+000  0.000000e+000
   outer loop
     vertex -8.000000e+000 -8.000000e+000 -5.800000e+001
     vertex  2.000000e+002 -8.000000e+000  0.000000e+000
     vertex -8.000000e+000 -8.000000e+000  8.000000e+000
   endloop
 endfacet
 facet normal  0.000000e+000 -1.000000e+000  0.000000e+000
   outer loop
     vertex -8.000000e+000 -8.000000e+000 -5.800000e+001
     vertex  5.080000e+002 -8.000000e+000 -5.800000e+001
     vertex  2.600000e+002 -8.000000e+000 -5.000000e+001
   endloop
 endfacet
 facet normal  0.000000e+000 -1.000000e+000  0.000000e+000
   outer loop
     vertex -8.000000e+000 -8.000000e+000 -5.800000e+001
     vertex  2.600000e+002 -8.000000e+000 -5.000000e+001
     vertex  2.000000e+002 -8.000000e+000 -5.000000e+001
   endloop
 endfacet
 facet normal -1.000000e+000  0.000000e+000  0.000000e+000
   outer loop
     vertex  2.600000e+002  1.790000e+002  0.000000e+000
     vertex  2.600000e+002 -8.000000e+000 -5.000000e+001
     vertex  2.600000e+002 -8.000000e+000  0.000000e+000
   endloop
 endfacet
 facet normal -1.000000e+000  0.000000e+000  0.000000e+000
   outer loop
     vertex  2.600000e+002  1.790000e+002 -5.000000e+001
     vertex  2.600000e+002 -8.000000e+000 -5.000000e+001
     vertex  2.600000e+002  1.790000e+002  0.000000e+000
   endloop
 endfacet
 facet normal -8.660254e-001  5.000000e-001  0.000000e+000
   outer loop
     vertex  3.300000e+002  3.002436e+002  0.000000e+000
     vertex  2.600000e+002  1.790000e+002 -5.000000e+001
     vertex  2.600000e+002  1.790000e+002  0.000000e+000
   endloop
 endfacet
 facet normal -8.660254e-001  5.000000e-001  0.000000e+000
   outer loop
     vertex  3.300000e+002  3.002436e+002 -5.000000e+001
     vertex  2.600000e+002  1.790000e+002 -5.000000e+001
     vertex  3.300000e+002  3.002436e+002  0.000000e+000
   endloop
 endfacet
 facet normal -9.848078e-001  1.736482e-001  0.000000e+000
   outer loop
     vertex  3.647296e+002  4.972051e+002 -5.000000e+001
     vertex  3.300000e+002  3.002436e+002 -5.000000e+001
     vertex  3.300000e+002  3.002436e+002  0.000000e+000
   endloop
 endfacet
 facet normal -9.848078e-001  1.736482e-001  0.000000e+000
   outer loop
     vertex  3.647296e+002  4.972051e+002 -5.000000e+001
     vertex  3.300000e+002  3.002436e+002  0.000000e+000
     vertex  3.647296e+002  4.972051e+002  0.000000e+000
   endloop
 endfacet
 facet normal -2.101305e-001  9.776733e-001  0.000000e+000
   outer loop
     vertex  3.647296e+002  4.972051e+002 -5.000000e+001
     vertex  3.647296e+002  4.972051e+002  0.000000e+000
     vertex  3.731730e+002  4.990198e+002  0.000000e+000
   endloop
 endfacet
 facet normal -2.101305e-001  9.776733e-001  0.000000e+000
   outer loop
     vertex  3.731730e+002  4.990198e+002 -5.000000e+001
     vertex  3.647296e+002  4.972051e+002 -5.000000e+001
     vertex  3.731730e+002  4.990198e+002  0.000000e+000
   endloop
 endfacet
 facet normal  9.848078e-001 -1.736482e-001  0.000000e+000
   outer loop
     vertex  3.376335e+002  2.974652e+002 -5.000000e+001
     vertex  3.731730e+002  4.990198e+002 -5.000000e+001
     vertex  3.731730e+002  4.990198e+002  0.000000e+000
   endloop
 endfacet
 facet normal  9.848078e-001 -1.736482e-001  0.000000e+000
   outer loop
     vertex  3.376335e+002  2.974652e+002 -5.000000e+001
     vertex  3.731730e+002  4.990198e+002  0.000000e+000
     vertex  3.376335e+002  2.974652e+002  0.000000e+000
   endloop
 endfacet
 facet normal  8.660254e-001 -5.000000e-001  0.000000e+000
   outer loop
     vertex  2.680000e+002  1.768564e+002  0.000000e+000
     vertex  3.376335e+002  2.974652e+002 -5.000000e+001
     vertex  3.376335e+002  2.974652e+002  0.000000e+000
   endloop
 endfacet
 facet normal  8.660254e-001 -5.000000e-001  0.000000e+000
   outer loop
     vertex  2.680000e+002  1.768564e+002 -5.000000e+001
     vertex  3.376335e+002  2.974652e+002 -5.000000e+001
     vertex  2.680000e+002  1.768564e+002  0.000000e+000
   endloop
 endfacet
 facet normal  1.000000e+000  0.000000e+000  0.000000e+000
   outer loop
     vertex  2.680000e+002  0.000000e+000 -5.000000e+001
     vertex  2.680000e+002  1.768564e+002 -5.000000e+001
     vertex  2.680000e+002  1.768564e+002  0.000000e+000
   endloop
 endfacet
 facet normal  1.000000e+000  0.000000e+000  0.000000e+000
   outer loop
     vertex  2.680000e+002  0.000000e+000 -5.000000e+001
     vertex  2.680000e+002  1.768564e+002  0.000000e+000
     vertex  2.680000e+002  0.000000e+000  0.000000e+000
   endloop
 endfacet
 facet normal  0.000000e+000  1.000000e+000  0.000000e+000
   outer loop
     vertex  5.000000e+002  0.000000e+000  0.000000e+000
     vertex  2.680000e+002  0.000000e+000 -5.000000e+001
     vertex  2.680000e+002  0.000000e+000  0.000000e+000
   endloop
 endfacet
 facet normal  0.000000e+000  1.000000e+000  0.000000e+000
   outer loop
     vertex  5.000000e+002  0.000000e+000 -5.000000e+001
     vertex  2.680000e+002  0.000000e+000 -5.000000e+001
     vertex  5.000000e+002  0.000000e+000  0.000000e+000
   endloop
 endfacet
 facet normal -1.000000e+000  0.000000e+000  0.000000e+000
   outer loop
     vertex  5.000000e+002  1.200000e+003  0.000000e+000
     vertex  5.000000e+002  0.000000e+000 -5.000000e+001
     vertex  5.000000e+002  2.273737e-013  0.000000e+000
   endloop
 endfacet
 facet normal -1.000000e+000  0.000000e+000  0.000000e+000
   outer loop
     vertex  5.000000e+002  1.200000e+003 -5.000000e+001
     vertex  5.000000e+002  0.000000e+000 -5.000000e+001
     vertex  5.000000e+002  1.200000e+003  0.000000e+000
   endloop
 endfacet
 facet normal  0.000000e+000 -1.000000e+000  0.000000e+000
   outer loop
     vertex  0.000000e+000  1.200000e+003  0.000000e+000
     vertex  5.000000e+002  1.200000e+003 -5.000000e+001
     vertex  5.000000e+002  1.200000e+003  0.000000e+000
   endloop
 endfacet
 facet normal  0.000000e+000 -1.000000e+000  0.000000e+000
   outer loop
     vertex  0.000000e+000  1.200000e+003 -5.000000e+001
     vertex  5.000000e+002  1.200000e+003 -5.000000e+001
     vertex  0.000000e+000  1.200000e+003  0.000000e+000
   endloop
 endfacet
 facet normal  1.000000e+000  0.000000e+000  0.000000e+000
   outer loop
     vertex  5.080000e+002 -8.000000e+000  8.000000e+000
     vertex  5.080000e+002  1.209013e+003 -5.800000e+001
     vertex  5.080000e+002  1.209013e+003  8.000000e+000
   endloop
 endfacet
 facet normal  1.000000e+000  0.000000e+000  0.000000e+000
   outer loop
     vertex  5.080000e+002 -8.000000e+000 -5.800000e+001
     vertex  5.080000e+002  1.209013e+003 -5.800000e+001
     vertex  5.080000e+002 -8.000000e+000  8.000000e+000
   endloop
 endfacet
 facet normal  0.000000e+000  1.000000e+000  0.000000e+000
   outer loop
     vertex  5.080000e+002  1.209013e+003  8.000000e+000
     vertex -8.000000e+000  1.209013e+003 -5.800000e+001
     vertex -8.000000e+000  1.209013e+003  8.000000e+000
   endloop
 endfacet
 facet normal  0.000000e+000  1.000000e+000  0.000000e+000
   outer loop
     vertex  5.080000e+002  1.209013e+003 -5.800000e+001
     vertex -8.000000e+000  1.209013e+003 -5.800000e+001
     vertex  5.080000e+002  1.209013e+003  8.000000e+000
   endloop
 endfacet
 facet normal -1.000000e+000  0.000000e+000  0.000000e+000
   outer loop
     vertex -8.000000e+000  1.209013e+003 -5.800000e+001
     vertex -8.000000e+000 -8.000000e+000 -5.800000e+001
     vertex -8.000000e+000 -8.000000e+000  8.000000e+000
   endloop
 endfacet
 facet normal -1.000000e+000  0.000000e+000  0.000000e+000
   outer loop
     vertex -8.000000e+000  1.209013e+003 -5.800000e+001
     vertex -8.000000e+000 -8.000000e+000  8.000000e+000
     vertex -8.000000e+000  1.209013e+003  8.000000e+000
   endloop
 endfacet
 facet normal  0.000000e+000  0.000000e+000  1.000000e+000
   outer loop
     vertex  5.080000e+002  1.209013e+003 -5.800000e+001
     vertex -8.000000e+000 -8.000000e+000 -5.800000e+001
     vertex  5.080000e+002 -8.000000e+000 -5.800000e+001
   endloop
 endfacet
 facet normal  0.000000e+000  0.000000e+000  1.000000e+000
   outer loop
     vertex -8.000000e+000  1.209013e+003 -5.800000e+001
     vertex -8.000000e+000 -8.000000e+000 -5.800000e+001
     vertex  5.080000e+002  1.209013e+003 -5.800000e+001
   endloop
 endfacet
 facet normal  0.000000e+000  0.000000e+000 -1.000000e+000
   outer loop
     vertex  5.080000e+002 -8.000000e+000  8.000000e+000
     vertex -8.000000e+000  1.209013e+003  8.000000e+000
     vertex  5.080000e+002  1.209013e+003  8.000000e+000
   endloop
 endfacet
 facet normal  0.000000e+000  0.000000e+000 -1.000000e+000
   outer loop
     vertex -8.000000e+000 -8.000000e+000  8.000000e+000
     vertex -8.000000e+000  1.209013e+003  8.000000e+000
     vertex  5.080000e+002 -8.000000e+000  8.000000e+000
   endloop
 endfacet
endsolid
