solid BOX
  facet normal  0.  0. -1.
    outer loop
      vertex  0.5  0.2 -0.2
      vertex  0.5 -0.2 -0.2
      vertex -0.5 -0.2 -0.2
    endloop
  endfacet
  facet normal  0.  0. -1.
    outer loop
      vertex -0.5 -0.2 -0.2
      vertex -0.5  0.2 -0.2
      vertex  0.5  0.2 -0.2
    endloop
  endfacet
  facet normal  1.  0.  0.
    outer loop
      vertex  0.5  0.2  0.2
      vertex  0.5 -0.2 -0.2
      vertex  0.5  0.2 -0.2
    endloop
  endfacet
  facet normal  1.  0.  0.
    outer loop
      vertex  0.5 -0.2 -0.2
      vertex  0.5  0.2  0.2
      vertex  0.5 -0.2  0.2
    endloop
  endfacet
  facet normal -1.  0.  0.
    outer loop
      vertex -0.5  0.2  0.2
      vertex -0.5  0.2 -0.2
      vertex -0.5 -0.2 -0.2
    endloop
  endfacet
  facet normal -1.  0.  0.
    outer loop
      vertex -0.5 -0.2 -0.2
      vertex -0.5 -0.2  0.2
      vertex -0.5  0.2  0.2
    endloop
  endfacet
  facet normal  0.  1.  0.
    outer loop
      vertex  0.5  0.2  0.2
      vertex -0.5  0.2 -0.2
      vertex -0.5  0.2  0.2
    endloop
  endfacet
  facet normal  0.  1.  0.
    outer loop
      vertex -0.5  0.2 -0.2
      vertex  0.5  0.2  0.2
      vertex  0.5  0.2 -0.2
    endloop
  endfacet
  facet normal  0. -1.  0.
    outer loop
      vertex  0.5 -0.2  0.2
      vertex -0.5 -0.2  0.2
      vertex -0.5 -0.2 -0.2
    endloop
  endfacet
  facet normal  0. -1.  0.
    outer loop
      vertex -0.5 -0.2 -0.2
      vertex  0.5 -0.2 -0.2
      vertex  0.5 -0.2  0.2
    endloop
  endfacet
endsolid BOX
